<?xml version="1.0" encoding="UTF-8" standalone="no"?>
<!-- Created with Inkscape (http://www.inkscape.org/) -->

<svg
   width="120mm"
   height="100mm"
   viewBox="0 0 120 100"
   version="1.1"
   id="svg5"
   inkscape:version="1.1.1 (3bf5ae0d25, 2021-09-20)"
   sodipodi:docname="image.svg"
   xmlns:inkscape="http://www.inkscape.org/namespaces/inkscape"
   xmlns:sodipodi="http://sodipodi.sourceforge.net/DTD/sodipodi-0.dtd"
   xmlns="http://www.w3.org/2000/svg"
   xmlns:svg="http://www.w3.org/2000/svg">
  <sodipodi:namedview
     id="namedview7"
     pagecolor="#ffffff"
     bordercolor="#666666"
     borderopacity="1.0"
     inkscape:pageshadow="2"
     inkscape:pageopacity="0.0"
     inkscape:pagecheckerboard="0"
     inkscape:document-units="mm"
     showgrid="false"
     inkscape:zoom="1.4911897"
     inkscape:cx="316.5258"
     inkscape:cy="234.37662"
     inkscape:window-width="1920"
     inkscape:window-height="1017"
     inkscape:window-x="-8"
     inkscape:window-y="-8"
     inkscape:window-maximized="1"
     inkscape:current-layer="layer1"
     height="150mm" />
  <defs
     id="defs2" />
  <g
     inkscape:label="Слой 1"
     inkscape:groupmode="layer"
     id="layer1">
    <ellipse
       style="fill:#ffff00;stroke:#241c1c;stroke-width:0.264583"
       id="path846"
       cx="71.126503"
       cy="70.144829"
       rx="22.846155"
       ry="20.882811" />
    <ellipse
       style="fill:#e3dbdb;stroke:#241c1c;stroke-width:0.264583"
       id="path1046"
       cx="70.858772"
       cy="45.156853"
       rx="8.7457933"
       ry="5.8900242" />
    <ellipse
       style="fill:#ffd5d5;stroke:#241c1c;stroke-width:0.264583"
       id="path1048"
       cx="45.870796"
       cy="66.932091"
       rx="3.7481971"
       ry="2.3203125" />
    <ellipse
       style="fill:#ffe680;stroke:#241c1c;stroke-width:0.264583"
       id="path1050"
       cx="96.560699"
       cy="67.110573"
       rx="4.1051683"
       ry="2.1418269" />
    <rect
       style="fill:#00ffff;stroke:#241c1c;stroke-width:0.264583"
       id="rect1495"
       width="11.51232"
       height="5.8007812"
       x="64.611771"
       y="33.55529" />
    <rect
       style="fill:#aa4400;stroke:#241c1c;stroke-width:0.264583"
       id="rect1519"
       width="15.892427"
       height="3.1066699"
       x="99.237984"
       y="52.920975" />
    <rect
       style="fill:#800000;stroke:#241c1c;stroke-width:0.264583"
       id="rect1843"
       width="0.052584201"
       height="0.92668271"
       x="62.469952"
       y="37.214241" />
    <rect
       style="fill:#800000;stroke:#241c1c;stroke-width:0.264583"
       id="rect1847"
       width="15.874099"
       height="3.6589544"
       x="76.481064"
       y="44.481972" />
    <ellipse
       style="fill:#ff00ff;stroke:#241c1c;stroke-width:0.264583"
       id="path1973"
       cx="67.065956"
       cy="44.130558"
       rx="0.84780651"
       ry="0.66932088" />
    <ellipse
       style="fill:#ff2a7f;stroke:#241c1c;stroke-width:0.264583"
       id="path1997"
       cx="73.937653"
       cy="43.996689"
       rx="0.93704927"
       ry="0.89242786" />
    <path
       sodipodi:type="star"
       style="fill:#ab37c8;stroke:#241c1c"
       id="path2145"
       inkscape:flatsided="false"
       sodipodi:sides="8"
       sodipodi:cx="267.13809"
       sodipodi:cy="179.10394"
       sodipodi:r1="5.1042085"
       sodipodi:r2="2.5521042"
       sodipodi:arg1="1.4382448"
       sodipodi:arg2="1.8309439"
       inkscape:rounded="0"
       inkscape:randomized="0"
       d="m 267.81268,184.16338 -1.33105,-2.59321 -2.44409,1.58834 0.89248,-2.77487 -2.85136,-0.60511 2.5932,-1.33105 -1.58834,-2.44409 2.77487,0.89248 0.60511,-2.85136 1.33105,2.5932 2.44409,-1.58834 -0.89247,2.77487 2.85136,0.60511 -2.59321,1.33105 1.58834,2.44409 -2.77487,-0.89247 z"
       transform="scale(0.26458333)" />
    <path
       style="fill:#221c24;stroke:#241c1c;stroke-width:0.264583"
       id="path2370"
       d="M 99.504287,52.783692 C 99.11467,52.468078 98.717805,52.163979 98.311043,51.870586 97.859346,51.54614 97.419691,51.204008 96.99223,50.848156 96.735759,50.649459 96.486508,50.442494 96.247322,50.223335 95.99774,49.96839 95.78882,49.676274 95.578577,49.388847 c -0.205147,-0.29141 -0.440082,-0.55825 -0.675428,-0.824966 -0.2358,-0.276921 -0.605436,-0.37108 -0.934591,-0.491749 -0.245967,-0.09844 -0.125788,-0.05009 -0.360563,-0.145002 0,0 -0.810676,0.543401 -0.810676,0.543401 v 0 c 0.23784,0.09275 0.116181,0.04447 0.36489,0.145042 0.312515,0.115639 0.671184,0.199842 0.899887,0.457335 0.237337,0.261337 0.478984,0.518803 0.678503,0.811604 0.212474,0.29346 0.421992,0.592733 0.673222,0.854668 0.241154,0.220527 0.489445,0.432255 0.752562,0.626451 0.436266,0.350835 0.887643,0.682815 1.336342,1.017362 0.397031,0.296731 0.79544,0.59118 1.162362,0.925484 0,0 0.8392,-0.524785 0.8392,-0.524785 z" />
    <path
       style="fill:#ff4500;stroke:#241c1c;stroke-width:0.264583"
       id="path2405"
       d="m 100.30415,52.264338 c -0.0972,-0.746347 -0.27264,-1.476893 -0.472203,-2.201526 -0.130855,-0.387821 -0.228886,-0.78713 -0.386225,-1.165881 -0.109697,-0.264068 -0.251656,-0.506497 -0.404995,-0.746588 -0.198634,-0.321741 -0.473134,-0.566656 -0.758468,-0.806207 -0.137245,-0.117993 -0.288063,-0.221424 -0.417537,-0.348104 -0.127987,-0.128154 -0.28785,-0.2164 -0.435602,-0.319201 -0.19178,-0.118169 -0.397155,-0.211852 -0.591534,-0.325554 -0.237228,-0.161386 -0.37528,-0.419383 -0.528624,-0.653653 -0.104828,-0.181886 -0.05206,-0.093 -0.158099,-0.266767 0,0 -0.848032,0.493102 -0.848032,0.493102 v 0 c 0.107664,0.171331 0.05384,0.08215 0.160893,0.267912 0.160607,0.24612 0.305295,0.517048 0.546698,0.694769 0.190354,0.116258 0.392721,0.210071 0.586012,0.321291 0.143561,0.09888 0.294048,0.189236 0.424757,0.304753 0.128982,0.132657 0.28249,0.238635 0.426956,0.353406 0.289824,0.236898 0.554722,0.443969 0.757703,0.77197 0.152299,0.231902 0.296193,0.466518 0.40759,0.721712 0.162589,0.372467 0.265967,0.766664 0.393002,1.151617 0.193251,0.721506 0.382738,1.453028 0.414771,2.202826 0,0 0.882937,-0.449877 0.882937,-0.449877 z" />
    <path
       style="fill:#447821;stroke:#241c1c;stroke-width:0.264583"
       id="path2473"
       d="m 100.94029,52.920111 c 0.44182,-0.8943 0.78201,-1.837431 1.12713,-2.772603 0.19629,-0.564761 0.39191,-1.129612 0.60034,-1.689973 0.13794,-0.407054 0.34352,-0.785337 0.55841,-1.155872 0.0908,-0.169897 0.19732,-0.341379 0.23962,-0.532231 0.0102,-0.046 0.0138,-0.09321 0.0207,-0.139816 0.0125,-0.04949 0.025,-0.09898 0.0375,-0.148469 0.0935,-0.379401 0.10399,-0.771826 0.17264,-1.154689 0.0411,-0.257024 0.10847,-0.506156 0.1781,-0.756528 0,0 -0.87968,0.418766 -0.87968,0.418766 v 0 c -0.0693,0.252847 -0.13317,0.506135 -0.17398,0.765451 -0.0618,0.38318 -0.0776,0.774271 -0.18075,1.150649 -0.0675,0.279908 -0.14092,0.550037 -0.30384,0.793736 -0.21021,0.378053 -0.41289,0.761918 -0.55405,1.172131 -0.19392,0.554482 -0.37204,1.11424 -0.56002,1.670762 -0.3409,0.942959 -0.67879,1.899705 -1.17427,2.774103 0,0 0.89215,-0.395417 0.89215,-0.395417 z" />
    <path
       style="fill:#ff4500;stroke:#241c1c;stroke-width:0.264583"
       id="path2508"
       d="m 100.76129,53.308614 c 0.0982,-0.850804 0.2343,-1.696447 0.37499,-2.541045 0.114,-0.64516 0.18438,-1.296553 0.21916,-1.950474 0.0162,-0.443288 0.0153,-0.887018 0.0142,-1.330541 -0.0221,-0.413407 0.0649,-0.819243 0.12099,-1.226315 0.0319,-0.15217 0.0221,-0.310224 0.0446,-0.463211 0.0209,-0.141801 0.066,-0.284478 0.0986,-0.424016 0.0587,-0.23258 0.0817,-0.4703 0.0921,-0.70915 0.006,-0.250124 0.002,-0.500409 0.002,-0.750607 0,0 -0.87207,0.444344 -0.87207,0.444344 v 0 c 5.3e-4,0.249915 -9e-5,0.499851 -0.0107,0.749591 -0.0127,0.232868 -0.0402,0.464415 -0.0958,0.691364 -0.068,0.29564 -0.11661,0.590058 -0.13524,0.893411 -0.0554,0.410239 -0.12929,0.820396 -0.11102,1.236321 5.3e-4,0.441399 0.004,0.882944 -0.0124,1.324136 -0.0285,0.645996 -0.091,1.289884 -0.19818,1.927916 -0.1385,0.855858 -0.25983,1.714243 -0.414671,2.567379 0,0 0.883451,-0.439103 0.883451,-0.439103 z" />
    <path
       style="fill:#ff4500;stroke:#241c1c;stroke-width:0.264583"
       id="path2543"
       d="m 100.19503,54.460335 c 0.82719,-0.0092 1.61842,-0.31937 2.36554,-0.647517 1.05468,-0.492445 2.02728,-1.133108 2.91086,-1.885654 0.35981,-0.311618 0.642,-0.691499 0.91792,-1.075529 0.24869,-0.343971 0.44088,-0.715719 0.59215,-1.111279 0.13502,-0.357534 0.2019,-0.733917 0.27414,-1.107657 0.0601,-0.319032 0.11318,-0.639191 0.15278,-0.961413 0,0 -0.87818,0.434448 -0.87818,0.434448 v 0 c -0.0367,0.319836 -0.0856,0.638143 -0.1524,0.953193 -0.0722,0.369128 -0.14242,0.739871 -0.28108,1.091314 -0.15565,0.386596 -0.34976,0.751186 -0.59854,1.087056 -0.27569,0.375785 -0.55818,0.747075 -0.91648,1.049997 -0.26935,0.228581 -0.54157,0.450596 -0.83063,0.65432 -0.12623,0.08896 -0.346,0.110019 -0.38356,0.259805 -0.006,0.0259 1.11068,-0.616316 -0.0741,0.03038 -0.64454,0.292815 -1.38013,0.60088 -2.09451,0.652746 -0.0684,0.005 -0.13713,-0.0028 -0.2057,-0.0041 0,0 -0.7982,0.579927 -0.7982,0.579927 z" />
    <path
       style="fill:#d35f8d;stroke:#241c1c;stroke-width:0.264583"
       id="path2578"
       d="m 99.600254,54.079994 c 1.323366,-0.46142 2.435596,-1.349166 3.483926,-2.250422 0.72161,-0.64453 1.39923,-1.350975 1.91985,-2.169869 0.10725,-0.18489 0.1994,-0.378639 0.25605,-0.585284 0.0341,-0.124249 0.0437,-0.249664 0.0785,-0.373701 0.055,-0.38931 0.12313,-0.773652 0.20494,-1.158665 0.0523,-0.365409 0.11597,-0.726644 0.18931,-1.088536 0.0564,-0.194567 0.0284,-0.100573 0.0838,-0.282051 0,0 -0.88772,0.42105 -0.88772,0.42105 v 0 c -0.0509,0.183454 -0.0258,0.08784 -0.0747,0.287009 -0.0715,0.361392 -0.1324,0.722964 -0.18785,1.08703 -0.0784,0.3859 -0.13858,0.774002 -0.21601,1.159574 -0.0718,0.321424 -0.13047,0.6405 -0.32395,0.91967 -0.51319,0.801328 -1.17332,1.496179 -1.88454,2.125046 -0.39722,0.338397 -0.6423,0.559197 -1.06329,0.869448 -0.17725,0.130622 -0.37989,0.22792 -0.5439,0.374814 -0.0975,0.08736 0.44319,-0.110951 0.34175,-0.193768 -0.16784,-0.137025 -0.4024,0.341598 -0.59512,0.261419 0,0 -0.781046,0.597236 -0.781046,0.597236 z" />
    <path
       style="fill:#ff4500;stroke:#241c1c;stroke-width:0.264583"
       id="path2613"
       d="m 100.01031,54.414599 c -0.523147,0.01111 -1.046469,0.0088 -1.569706,0.0089 -0.544769,-0.0082 -1.091139,0.02522 -1.633641,-0.03463 -0.500671,-0.09182 -0.624295,-0.354182 -0.811704,-0.789287 C 95.8442,53.211163 95.71394,52.807914 95.451156,52.479101 95.111971,52.187358 94.772,51.896105 94.421718,51.61767 94.14534,51.440876 93.919534,51.208286 93.697892,50.969618 c -0.257585,-0.297733 -0.491561,-0.616373 -0.777404,-0.888026 -0.255439,-0.27727 -0.554093,-0.500417 -0.871879,-0.699979 -0.05611,-0.03003 -0.112223,-0.06007 -0.168333,-0.09011 0,0 -0.815948,0.53499 -0.815948,0.53499 v 0 c 0.05504,0.02778 0.110069,0.05557 0.165105,0.08335 0.314674,0.193331 0.608036,0.412586 0.860764,0.684146 0.287334,0.266465 0.520961,0.582634 0.772972,0.881627 0.220133,0.247996 0.448114,0.486428 0.732594,0.662238 0.34961,0.267981 0.687155,0.550754 1.01628,0.843611 0.261999,0.316955 0.39066,0.713563 0.539126,1.091975 0.195159,0.461367 0.337288,0.762651 0.863399,0.87721 0.547153,0.06669 1.098775,0.02793 1.648759,0.03754 0.515099,9e-5 1.03029,-0.0024 1.545299,0.0089 0,0 0.801684,-0.582459 0.801684,-0.582459 z" />
    <path
       sodipodi:type="star"
       style="fill:#ff4500;stroke:#241c1c"
       id="path2672"
       inkscape:flatsided="false"
       sodipodi:sides="5"
       sodipodi:cx="259.043"
       sodipodi:cy="134.24364"
       sodipodi:r1="9.8511095"
       sodipodi:r2="4.9255552"
       sodipodi:arg1="0.90675016"
       sodipodi:arg2="1.5350687"
       inkscape:rounded="0"
       inkscape:randomized="0"
       d="m 265.11432,142.00144 -5.89538,-2.83539 -5.6779,3.24905 0.87484,-6.48302 -4.8446,-4.396 6.43606,-1.17134 2.68378,-5.96593 3.10286,5.7591 6.50326,0.70885 -4.51838,4.73066 z"
       transform="matrix(0.26458333,0,0,0.26458333,2.0525841,0.62469952)"
       inkscape:transform-center-x="0.028770995"
       inkscape:transform-center-y="-0.22137241" />
    <path
       sodipodi:type="spiral"
       style="fill:#ff1493;fill-rule:evenodd;stroke:#000000"
       id="path2920"
       sodipodi:cx="236.4442"
       sodipodi:cy="225.98804"
       sodipodi:expansion="1"
       sodipodi:revolution="3"
       sodipodi:radius="62.352261"
       sodipodi:argument="-18.121567"
       sodipodi:t0="0"
       d="m 236.4442,225.98804 c 2.33378,2.08011 -1.65254,4.17214 -3.45728,3.8789 -4.89073,-0.79467 -6.02253,-6.93554 -4.30053,-10.79346 3.08027,-6.9009 12.03411,-8.20319 18.12964,-4.72215 8.94543,5.10857 10.44368,17.2001 5.14378,25.46581 -7.06394,11.0169 -22.3898,12.70937 -32.80199,5.56541 -13.10268,-8.98995 -14.98804,-27.59075 -5.98704,-40.13817 10.90143,-15.19661 32.79802,-17.27421 47.47435,-6.40866 17.29556,12.80467 19.56509,38.00922 6.83029,54.81053 -14.70283,19.39777 -43.22306,21.8591 -62.14671,7.25191 -21.50225,-16.59762 -24.15532,-48.43874 -7.67353,-69.48288 18.49007,-23.60836 53.65576,-26.45314 76.81906,-8.09517 25.71564,20.38083 28.75214,58.87382 8.51679,84.15524"
       transform="matrix(0.26458333,0,0,0.26458333,6.8716947,10.262921)" />
  </g>
</svg>
